<svg width="18" height="18" viewBox="0 0 18 18" fill="none" xmlns="http://www.w3.org/2000/svg">
<path d="M0 1.28942C0 0.577668 0.592066 0 1.322 0H16.5647C17.2949 0 17.8867 0.577668 17.8867 1.28942V16.7108C17.8867 17.4228 17.2949 18 16.5647 18H1.322C0.592066 18 0 17.4228 0 16.711V1.28919V1.28942Z" fill="#CCCCCC"/>
<path d="M5.4215 15.0678V6.93981H2.7199V15.0678H5.42174H5.4215ZM4.07117 5.83027C5.0131 5.83027 5.5995 5.2061 5.5995 4.42612C5.58179 3.62843 5.01309 3.02173 4.08911 3.02173C3.16442 3.02173 2.56055 3.62843 2.56055 4.42612C2.56055 5.2061 3.14671 5.83027 4.05346 5.83027H4.07093H4.07117ZM6.91678 15.0678H9.61815V10.5293C9.61815 10.2866 9.63585 10.0434 9.70715 9.87017C9.90238 9.38457 10.3469 8.88197 11.0934 8.88197C12.0707 8.88197 12.4619 9.62725 12.4619 10.72V15.0678H15.1632V10.4075C15.1632 7.91101 13.8306 6.7493 12.0532 6.7493C10.596 6.7493 9.95597 7.56375 9.60044 8.11852H9.61839V6.94005H6.91701C6.95219 7.70256 6.91678 15.068 6.91678 15.068V15.0678Z" fill="black"/>
</svg>
