<svg width="24" height="24" viewBox="0 0 24 24" fill="none" xmlns="http://www.w3.org/2000/svg">
<g opacity="0.8">
<path fill-rule="evenodd" clip-rule="evenodd" d="M19.8573 5.48872C20.701 5.71862 21.3653 6.39599 21.5908 7.25619C22.0006 8.81522 22.0006 12.0681 22.0006 12.0681C22.0006 12.0681 22.0006 15.3209 21.5908 16.8802C21.3653 17.7403 20.701 18.4176 19.8573 18.6476C18.3282 19.0653 12.1966 19.0653 12.1966 19.0653C12.1966 19.0653 6.06495 19.0653 4.53586 18.6476C3.69228 18.4176 3.02783 17.7403 2.80234 16.8802C2.39258 15.3209 2.39258 12.0681 2.39258 12.0681C2.39258 12.0681 2.39258 8.81522 2.80234 7.25619C3.02783 6.39599 3.69228 5.71862 4.53586 5.48872C6.06495 5.07092 12.1966 5.07092 12.1966 5.07092C12.1966 5.07092 18.3282 5.07092 19.8573 5.48872ZM15.3147 12.0688L10.1899 15.022V9.11526L15.3147 12.0688Z" fill="white"/>
</g>
</svg>
