<svg width="24" height="25" viewBox="0 0 24 25" fill="none" xmlns="http://www.w3.org/2000/svg">
<path fill-rule="evenodd" clip-rule="evenodd" d="M5.99805 11.9756C5.99805 11.5614 6.33383 11.2256 6.74805 11.2256H17.248C17.6623 11.2256 17.998 11.5614 17.998 11.9756V18.3506C17.998 18.7648 17.6623 19.1006 17.248 19.1006H6.74805C6.33383 19.1006 5.99805 18.7648 5.99805 18.3506V11.9756ZM7.49805 12.7256V17.6006H16.498V12.7256H7.49805Z" fill="white"/>
<path d="M6.74805 18.3506V11.9756H17.248V18.3506H6.74805Z" fill="white"/>
<path fill-rule="evenodd" clip-rule="evenodd" d="M11.998 7.10059C10.3861 7.10059 8.99805 8.50933 8.99805 10.3506V11.6006H7.49805V10.3506C7.49805 7.77357 9.4679 5.60059 11.998 5.60059C14.5282 5.60059 16.498 7.77357 16.498 10.3506V11.6006H14.998V10.3506C14.998 8.50933 13.61 7.10059 11.998 7.10059Z" fill="white"/>
</svg>
