<svg width="146" height="48" viewBox="0 0 146 48" fill="none" xmlns="http://www.w3.org/2000/svg">
<path d="M42.2665 31.1782C41.2187 31.1782 40.3756 30.4638 40.056 29.3595L35.1656 12.12H28.3535L34.2608 32.9979H43.1095V31.1782H42.2665Z" fill="#EF4562"/>
<path d="M24.3086 23.4541L21.1092 12.1211H12.2285V13.9408H13.0716C14.1223 13.9408 14.9933 14.5682 15.313 15.7279L20.2043 32.999H24.6601L26.8435 25.3322L26.8126 25.3045C25.3873 25.3045 24.6862 24.7672 24.3086 23.4541Z" fill="#EF4562"/>
<path d="M5.99023 31.1743V33H13.8598V31.1743H5.99023Z" fill="#EF4562"/>
<path d="M66.6756 20.9133L63.4626 29.8293H62.5978L59.1835 20.9133L58.3408 27.7879C58.3195 27.9151 58.3048 28.0994 58.3048 28.1847C58.3048 29.0147 58.6722 29.1845 59.9109 29.2481V29.8293H56V29.2481C56.9646 29.1982 57.2895 29.0147 57.3901 28.2701L58.4562 19.9779C58.5715 19.0779 58.1322 18.8155 57.0154 18.7446V18.1843H60.8404C60.8764 18.5466 60.9557 18.8299 61.0924 19.1978L63.8513 26.4339L66.4089 19.1761C66.5455 18.8147 66.6462 18.5458 66.6756 18.1835H70.4352V18.7438C69.3478 18.8147 68.9085 19.0771 69.0312 19.9771L70.0613 28.2693C70.1619 29.0493 70.5154 29.1982 71.4514 29.2473V29.8285H65.9843V29.2473C67.151 29.1837 67.5544 29.0139 67.5544 28.1839C67.5544 28.0849 67.5396 27.9151 67.5257 27.7871L66.6756 20.9133ZM78.8706 27.9859C78.8706 28.5526 79.0073 28.9149 79.4327 28.9149C79.6847 28.9149 79.9228 28.8368 80.1094 28.7523L80.21 29.1137C79.7199 29.6804 79.0793 29.9992 78.3012 29.9992C77.3652 29.9992 76.7745 29.4462 76.6084 28.5317C76.0675 29.2336 75.1888 29.9638 73.9501 29.9638C72.596 29.9638 71.7025 29.1491 71.7025 27.8161C71.7025 26.4057 72.7326 25.8028 74.0008 25.3568L76.5576 24.4431V23.0392C76.5576 22.0757 76.2328 21.3955 75.3688 21.3955C74.5768 21.3955 74.1015 21.5935 73.8495 21.9412C74.3755 22.062 74.6775 22.4725 74.6775 22.9901C74.6775 23.7066 74.1735 24.1743 73.3954 24.1743C72.668 24.1743 72.2074 23.7066 72.2074 22.9765C72.2074 21.5806 73.6621 20.8786 75.557 20.8786C77.7039 20.8786 78.8706 21.6442 78.8706 23.6076V27.9859ZM76.5585 28.1348V25.0517L75.1029 25.6184C74.3903 25.9018 73.9362 26.2705 73.9362 27.1986C73.9362 28.0704 74.3395 28.6653 75.2543 28.6653C75.7444 28.6661 76.0831 28.4826 76.5585 28.1348ZM80.4841 29.1845L80.3761 26.8879H81.0028C81.3775 28.3337 82.2203 29.418 83.5236 29.418C84.4392 29.418 85.1158 29.0002 85.1158 28.0849C85.1158 27.1849 84.5038 26.838 83.171 26.3703C81.3767 25.7537 80.4481 25.0517 80.4481 23.5206C80.4481 21.8414 81.7302 20.877 83.5744 20.877C84.6765 20.877 85.6059 21.1467 86.3333 21.5935V23.6068H85.7573C85.4693 22.4226 84.7779 21.4454 83.5744 21.4454C82.7169 21.4454 82.2055 21.9412 82.2055 22.6786C82.2055 23.4224 82.7316 23.7919 84.035 24.2733C85.8579 24.8899 86.9232 25.5701 86.9232 27.2002C86.9232 28.9656 85.5912 30 83.5089 30C82.2203 29.9992 81.1755 29.6659 80.4841 29.1845ZM90.5625 21.0268H92.7666V21.7778H90.5625V27.2985C90.5625 28.2974 90.9511 28.7305 91.7505 28.7305C92.2045 28.7305 92.5793 28.5808 92.9974 28.2838L93.2207 28.5671C92.6807 29.3963 91.8298 29.9992 90.5985 29.9992C89.2296 29.9992 88.2143 29.2836 88.2143 27.4192V21.7778H87.1629V21.4236C88.3296 20.8915 89.309 19.9779 90.0372 18.8791H90.5633L90.5625 21.0268ZM100.784 24.3361V24.7185H95.2809C95.2163 27.036 96.419 28.4319 98.0758 28.4319C99.2278 28.4319 99.9846 27.936 100.597 27.0714L100.849 27.2204C100.425 28.865 99.1926 29.9984 97.2617 29.9984C94.8129 29.9984 93.1708 28.2194 93.1708 25.6675C93.1708 22.8396 95.0297 20.8762 97.3345 20.8762C99.5952 20.8778 100.784 22.3445 100.784 24.3361ZM95.3308 24.1236H98.6805C98.6805 22.5434 98.2624 21.48 97.1603 21.48C96.0443 21.48 95.4535 22.5925 95.3308 24.1236ZM117.813 18.9998L117.849 21.6579H117.186C116.797 19.7444 115.803 18.7164 114.16 18.7164C111.841 18.7164 110.775 20.9913 110.775 23.8265C110.775 26.9161 112.014 29.2836 114.312 29.2836C115.904 29.2836 116.984 28.2982 117.561 25.8881H118.252L117.985 29.0139C117.006 29.6305 115.681 29.9984 114.096 29.9984C110.421 29.9984 108.153 27.7372 108.153 24.3071C108.153 20.4311 110.776 18 114.096 18C115.601 18 116.847 18.3614 117.813 18.9998ZM122.077 28.5534C122.077 29.1346 122.329 29.2345 123.129 29.2836V29.8293H118.677V29.2836C119.455 29.2336 119.728 29.1346 119.728 28.5534V19.6945L118.714 19.1769V18.8299L121.703 18.029H122.078L122.077 28.5534ZM128.279 28.1276V25.0525L126.824 25.6192C126.132 25.8817 125.671 26.2648 125.671 27.1994C125.671 28.064 126.082 28.6661 126.976 28.6661C127.466 28.6661 127.804 28.4826 128.279 28.1276ZM132.213 29.1845L132.112 26.8879H132.739C133.106 28.3337 133.956 29.418 135.253 29.418C136.168 29.418 136.867 29.0002 136.867 28.0849C136.867 27.1849 136.24 26.838 134.9 26.3703C133.106 25.7537 132.177 25.0517 132.177 23.5206C132.177 21.8414 133.459 20.877 135.324 20.877C136.404 20.877 137.334 21.1467 138.062 21.5935V23.6068H137.486C137.205 22.4226 136.506 21.4454 135.325 21.4454C134.446 21.4454 133.934 21.9412 133.934 22.6786C133.934 23.4224 134.46 23.7919 135.765 24.2733C137.594 24.8899 138.675 25.5701 138.675 27.2002C138.675 28.9656 137.321 30 135.239 30C133.956 29.9992 132.904 29.6659 132.213 29.1845ZM139.539 29.1845L139.452 26.8879H140.079C140.446 28.3337 141.31 29.418 142.6 29.418C143.507 29.418 144.206 29.0002 144.206 28.0849C144.206 27.1849 143.565 26.838 142.261 26.3703C140.445 25.7537 139.517 25.0517 139.517 23.5206C139.517 21.8414 140.806 20.877 142.664 20.877C143.744 20.877 144.674 21.1467 145.408 21.5935V23.6068H144.832C144.558 22.4226 143.845 21.4454 142.664 21.4454C141.785 21.4454 141.295 21.9412 141.295 22.6786C141.295 23.4224 141.799 23.7919 143.104 24.2733C144.949 24.8891 146 25.5693 146 27.1994C146 28.9648 144.661 29.9992 142.578 29.9992C141.31 29.9992 140.244 29.6659 139.539 29.1845ZM130.606 27.9859C130.606 28.5526 130.735 28.9149 131.161 28.9149C131.413 28.9149 131.651 28.8368 131.838 28.7523L131.939 29.1137C131.449 29.6804 130.807 29.9992 130.03 29.9992C129.101 29.9992 128.502 29.4462 128.337 28.5317C127.797 29.2336 126.918 29.9638 125.679 29.9638C124.325 29.9638 123.431 29.1491 123.431 27.8161C123.431 26.4057 124.461 25.8028 125.73 25.3568L128.287 24.4431V23.0392C128.287 22.0757 127.963 21.3955 127.106 21.3955C126.306 21.3955 125.83 21.5935 125.578 21.9412C126.104 22.062 126.407 22.4725 126.407 22.9901C126.407 23.7066 125.902 24.1743 125.125 24.1743C124.398 24.1743 123.937 23.7066 123.937 22.9765C123.937 21.5806 125.392 20.8786 127.287 20.8786C129.441 20.8786 130.608 21.6442 130.608 23.6076V27.9859H130.606ZM105.264 21.9767C105.264 22.7913 105.754 23.3089 106.497 23.3089C107.311 23.3089 107.822 22.7913 107.822 22.062C107.822 21.3109 107.361 20.8778 106.706 20.8778C105.791 20.8778 105.201 21.509 104.538 23.3443L104.602 20.8778H104.214L101.188 21.7786V22.0894L102.204 22.6915V28.5526C102.204 29.1338 101.929 29.2336 101.152 29.2828V29.8285H105.957V29.2828C104.927 29.1974 104.538 29.0984 104.538 28.4319V24.159C104.913 23.1238 105.503 22.4081 106.483 21.8414L105.264 21.9767Z" fill="#FFFEF2"/>
</svg>
