<svg width="356" height="49" viewBox="0 0 356 49" fill="none" xmlns="http://www.w3.org/2000/svg">
<g clip-path="url(#clip0_636_20672)">
<path d="M42.1291 12.1596L29.4497 47.9215H26.0369L12.5632 12.1596L9.23754 39.7333C9.15359 40.2435 9.09547 40.9829 9.09547 41.3251C9.09547 44.654 10.5452 45.3353 15.4336 45.5903V47.9215H0V45.5903C3.80673 45.3902 5.08856 44.654 5.4857 41.6674L9.6928 8.40772C10.1481 4.79795 8.4142 3.74536 4.00692 3.46123V1.214H19.1015C19.2435 2.66695 19.5567 3.80348 20.0959 5.27903L30.9834 34.3025L41.0765 5.19186C41.6157 3.74213 42.0129 2.66372 42.1291 1.21077H56.9654V3.458C52.6743 3.74213 50.9405 4.79472 51.4248 8.40449L55.4898 41.6642C55.8869 44.7928 57.2818 45.3902 60.9755 45.5871V47.9183H39.4008V45.5871C44.005 45.332 45.5968 44.6508 45.5968 41.3219C45.5968 40.9248 45.5387 40.2435 45.4838 39.7301L42.1291 12.1596ZM90.2541 40.5276C90.2541 42.8007 90.7933 44.2536 92.4722 44.2536C93.4667 44.2536 94.4063 43.9404 95.1424 43.6014L95.5396 45.0511C93.6055 47.3242 91.0774 48.6028 88.0068 48.6028C84.3131 48.6028 81.9819 46.3846 81.3265 42.7167C79.1923 45.5322 75.7246 48.4607 70.8362 48.4607C65.4926 48.4607 61.9667 45.1932 61.9667 39.8463C61.9667 34.1895 66.0318 31.7712 71.0364 29.9824L81.1263 26.3178V20.6868C81.1263 16.8219 79.8445 14.0936 76.4349 14.0936C73.3094 14.0936 71.4335 14.8879 70.4391 16.2827C72.5152 16.767 73.7066 18.4137 73.7066 20.4898C73.7066 23.3634 71.7177 25.2393 68.6471 25.2393C65.7767 25.2393 63.9589 23.3634 63.9589 20.4349C63.9589 14.8362 69.6997 12.0207 77.1775 12.0207C85.6498 12.0207 90.2541 15.0913 90.2541 22.9663V40.5276V40.5276ZM81.1295 41.1249V28.7587L75.3855 31.0318C72.5733 32.1683 70.7813 33.6471 70.7813 37.3699C70.7813 40.8666 72.3731 43.2527 75.9829 43.2527C77.9169 43.2559 79.2536 42.5198 81.1295 41.1249ZM96.6212 45.3353L96.195 36.1236H98.6683C100.147 41.9225 103.473 46.2716 108.616 46.2716C112.229 46.2716 114.899 44.5959 114.899 40.9248C114.899 37.315 112.484 35.9234 107.225 34.0475C100.144 31.5742 96.4792 28.7587 96.4792 22.6176C96.4792 15.8823 101.539 12.0143 108.816 12.0143C113.165 12.0143 116.833 13.0959 119.704 14.8879V22.9631H117.431C116.294 18.2135 113.566 14.2938 108.816 14.2938C105.433 14.2938 103.415 16.2827 103.415 19.2403C103.415 22.2237 105.491 23.7057 110.634 25.6365C117.828 28.1097 122.032 30.8381 122.032 37.3763C122.032 44.457 116.775 48.606 108.558 48.606C103.473 48.6028 99.3495 47.2661 96.6212 45.3353ZM136.393 12.6148H145.092V15.6273H136.393V37.7702C136.393 41.7772 137.927 43.5142 141.082 43.5142C142.873 43.5142 144.352 42.9137 146.002 41.7223L146.884 42.8588C144.753 46.1844 141.395 48.6028 136.535 48.6028C131.134 48.6028 127.127 45.7324 127.127 38.2546V15.6273H122.978V14.2066C127.582 12.0724 131.447 8.40772 134.32 4.00044H136.397V12.6148H136.393ZM176.73 25.8883V27.422H155.014C154.759 36.7177 159.505 42.3164 166.043 42.3164C170.589 42.3164 173.576 40.3274 175.994 36.8597L176.989 37.4571C175.313 44.0534 170.451 48.5996 162.831 48.5996C153.167 48.5996 146.687 41.464 146.687 31.2287C146.687 19.886 154.022 12.011 163.118 12.011C172.039 12.0175 176.73 17.9003 176.73 25.8883ZM155.211 25.0359H168.429C168.429 18.6978 166.779 14.4326 162.43 14.4326C158.026 14.4326 155.695 18.8948 155.211 25.0359ZM243.931 4.48475L244.073 15.1462H241.458C239.924 7.47137 236.001 3.34822 229.518 3.34822C220.364 3.34822 216.157 12.4728 216.157 23.8445C216.157 36.2366 221.045 45.7324 230.115 45.7324C236.398 45.7324 240.66 41.7804 242.937 32.1134H245.665L244.612 44.6508C240.747 47.124 235.517 48.5996 229.263 48.5996C214.762 48.5996 205.812 39.5299 205.812 25.7721C205.812 10.2255 216.16 0.474609 229.263 0.474609C235.204 0.474609 240.121 1.92433 243.931 4.48475ZM260.759 42.8039C260.759 45.1351 261.754 45.5355 264.908 45.7324V47.9215H247.341V45.7324C250.411 45.5322 251.49 45.1351 251.49 42.8039V7.27119L247.486 5.19509V3.80348L259.284 0.590845H260.763V42.8039H260.759ZM285.234 41.0959V28.7619L279.493 31.035C276.761 32.0876 274.943 33.6245 274.943 37.3731C274.943 40.8408 276.564 43.2559 280.09 43.2559C282.024 43.2559 283.358 42.5198 285.234 41.0959ZM300.758 45.3353L300.36 36.1236H302.834C304.283 41.9225 307.638 46.2716 312.756 46.2716C316.366 46.2716 319.123 44.5959 319.123 40.9248C319.123 37.315 316.65 35.9234 311.361 34.0475C304.283 31.5742 300.616 28.7587 300.616 22.6176C300.616 15.8823 305.675 12.0143 313.037 12.0143C317.299 12.0143 320.967 13.0959 323.84 14.8879V22.9631H321.567C320.46 18.2135 317.699 14.2938 313.04 14.2938C309.572 14.2938 307.551 16.2827 307.551 19.2403C307.551 22.2237 309.627 23.7057 314.774 25.6365C321.993 28.1097 326.258 30.8381 326.258 37.3763C326.258 44.457 320.915 48.606 312.701 48.606C307.635 48.6028 303.486 47.2661 300.758 45.3353ZM329.668 45.3353L329.326 36.1236H331.799C333.249 41.9225 336.658 46.2716 341.747 46.2716C345.328 46.2716 348.085 44.5959 348.085 40.9248C348.085 37.315 345.557 35.9234 340.41 34.0475C333.246 31.5742 329.581 28.7587 329.581 22.6176C329.581 15.8823 334.669 12.0143 342.002 12.0143C346.264 12.0143 349.932 13.0959 352.831 14.8879V22.9631H350.558C349.477 18.2135 346.661 14.2938 342.002 14.2938C338.531 14.2938 336.6 16.2827 336.6 19.2403C336.6 22.2237 338.589 23.7057 343.736 25.6365C351.017 28.1065 355.166 30.8348 355.166 37.3731C355.166 44.4538 349.88 48.6028 341.663 48.6028C336.658 48.6028 332.451 47.2661 329.668 45.3353ZM294.416 40.5276C294.416 42.8007 294.926 44.2536 296.605 44.2536C297.6 44.2536 298.539 43.9404 299.279 43.6014L299.676 45.0511C297.742 47.3242 295.211 48.6028 292.143 48.6028C288.479 48.6028 286.115 46.3846 285.463 42.7167C283.332 45.5322 279.864 48.4607 274.973 48.4607C269.629 48.4607 266.103 45.1932 266.103 39.8463C266.103 34.1895 270.168 31.7712 275.173 29.9824L285.266 26.3178V20.6868C285.266 16.8219 283.987 14.0936 280.604 14.0936C277.449 14.0936 275.57 14.8879 274.575 16.2827C276.652 16.767 277.846 18.4137 277.846 20.4898C277.846 23.3634 275.854 25.2393 272.787 25.2393C269.916 25.2393 268.098 23.3634 268.098 20.4349C268.098 14.8362 273.839 12.0207 281.317 12.0207C289.818 12.0207 294.423 15.0913 294.423 22.9663V40.5276H294.416ZM194.411 16.4248C194.411 19.6923 196.345 21.7684 199.274 21.7684C202.486 21.7684 204.504 19.6923 204.504 16.767C204.504 13.7546 202.687 12.0175 200.1 12.0175C196.491 12.0175 194.159 14.5489 191.544 21.9105L191.799 12.0175H190.266L178.325 15.6305V16.8768L182.332 19.2919V42.8007C182.332 45.1319 181.251 45.5322 178.183 45.7292V47.9183H197.146V45.7292C193.081 45.3869 191.544 44.9898 191.544 42.3164V25.178C193.023 21.0258 195.354 18.1554 199.219 15.8823L194.411 16.4248Z" fill="#EF4562"/>
</g>
<defs>
<clipPath id="clip0_636_20672">
<rect width="355.166" height="48.1282" fill="white" transform="translate(0 0.474609)"/>
</clipPath>
</defs>
</svg>
