<svg width="171" height="48" viewBox="0 0 171 48" fill="none" xmlns="http://www.w3.org/2000/svg">
<g clip-path="url(#clip0_1020_1049)">
<rect x="0.5" y="0.5" width="170" height="47" rx="7.5" fill="black" stroke="#949AA4"/>
<path fill-rule="evenodd" clip-rule="evenodd" d="M51.5994 36.2199C47.8884 38.9679 42.5135 40.4199 37.8928 40.4199C31.4046 40.4199 25.5629 38.0199 21.1456 34.0119C20.7985 33.6999 21.1097 33.2679 21.5287 33.5079C26.2931 36.2919 32.1947 37.9599 38.2878 37.9599C42.3938 37.9599 46.9188 37.1079 51.0726 35.3439C51.6832 35.0799 52.2099 35.7639 51.5994 36.2199Z" fill="white"/>
<path fill-rule="evenodd" clip-rule="evenodd" d="M53.1307 34.4559C52.6519 33.8439 49.9944 34.1679 48.7973 34.3119C48.4382 34.3599 48.3783 34.0359 48.7015 33.8079C50.8204 32.3079 54.3039 32.7399 54.6989 33.2439C55.1059 33.7479 54.5912 37.2399 52.604 38.9079C52.2928 39.1599 52.0055 39.0279 52.1372 38.6919C52.604 37.5639 53.6096 35.0559 53.1307 34.4559Z" fill="white"/>
<path fill-rule="evenodd" clip-rule="evenodd" d="M48.8948 23.248V21.7959C48.8948 21.5799 49.0624 21.424 49.2659 21.424H55.754C55.9576 21.424 56.1251 21.5799 56.1251 21.7959V23.044C56.1251 23.248 55.9456 23.524 55.6343 23.956L52.2705 28.768C53.5155 28.744 54.8443 28.924 55.9695 29.56C56.2209 29.704 56.2927 29.92 56.3167 30.124V31.6719C56.3167 31.8879 56.0892 32.128 55.8378 32.0079C53.8387 30.964 51.1932 30.844 48.9786 32.02C48.7511 32.14 48.5117 31.9 48.5117 31.6839V30.208C48.5117 29.9679 48.5117 29.5719 48.7511 29.212L52.6416 23.6079H49.2539C49.0624 23.6079 48.8948 23.464 48.8948 23.248Z" fill="white"/>
<path fill-rule="evenodd" clip-rule="evenodd" d="M25.2152 32.3199H23.24C23.0484 32.3079 22.9048 32.1639 22.8809 31.9839V21.8199C22.8809 21.6159 23.0485 21.4599 23.2639 21.4599H25.1074C25.299 21.4719 25.4546 21.6159 25.4666 21.7959V23.1279H25.5025C25.9813 21.8439 26.8791 21.2439 28.1001 21.2439C29.3331 21.2439 30.1112 21.8439 30.6619 23.1279C31.1407 21.8439 32.2301 21.2439 33.3912 21.2439C34.2172 21.2439 35.127 21.5919 35.6776 22.3599C36.3001 23.2119 36.1804 24.4599 36.1804 25.5399V31.9479C36.1804 32.1519 36.0128 32.3079 35.7974 32.3079H33.8222C33.6187 32.2959 33.463 32.1399 33.463 31.9479V26.5599C33.463 26.1279 33.499 25.0599 33.4032 24.6519C33.2595 23.9679 32.8166 23.7759 32.242 23.7759C31.7632 23.7759 31.2604 24.0999 31.0569 24.6039C30.8534 25.1199 30.8774 25.9719 30.8774 26.5479V31.9359C30.8774 32.1399 30.7098 32.2959 30.4943 32.2959H28.5311C28.3276 32.2839 28.172 32.1279 28.172 31.9359V26.5479C28.172 25.4199 28.3515 23.7519 26.9509 23.7519C25.5264 23.7519 25.5863 25.3719 25.5863 26.5479V31.9359C25.5982 32.1519 25.4306 32.3199 25.2152 32.3199Z" fill="white"/>
<path fill-rule="evenodd" clip-rule="evenodd" d="M61.7146 21.2439C64.6475 21.2439 66.2276 23.7639 66.2276 26.9679C66.2276 30.0639 64.4799 32.5239 61.7146 32.5239C58.8416 32.5239 57.2734 30.0039 57.2734 26.8599C57.2734 23.7039 58.8536 21.2439 61.7146 21.2439ZM61.7266 23.3199C60.2661 23.3199 60.1823 25.3119 60.1823 26.5479C60.1823 27.7839 60.1584 30.4359 61.7146 30.4359C63.2469 30.4359 63.3187 28.2999 63.3187 26.9919C63.3187 26.1399 63.2828 25.1079 63.0194 24.2919C62.8039 23.5959 62.361 23.3199 61.7266 23.3199Z" fill="white"/>
<path fill-rule="evenodd" clip-rule="evenodd" d="M70.0352 32.3199H68.072C67.8685 32.3079 67.7129 32.1519 67.7129 31.9599V21.7959C67.7249 21.6039 67.8925 21.4599 68.096 21.4599H69.9275C70.0951 21.4719 70.2387 21.5919 70.2746 21.7479V23.3079H70.3106C70.8612 21.9159 71.6393 21.2559 73.004 21.2559C73.8898 21.2559 74.7517 21.5799 75.3024 22.4559C75.8171 23.2719 75.8171 24.6399 75.8171 25.6239V32.0199C75.7932 32.1759 75.6376 32.3199 75.4341 32.3199H73.4589C73.2793 32.3079 73.1237 32.1759 73.1117 31.9959V26.4759C73.1117 25.3599 73.2434 23.7399 71.8787 23.7399C71.3999 23.7399 70.957 24.0639 70.7415 24.5559C70.4662 25.1799 70.4303 25.7919 70.4303 26.4759V31.9479C70.4063 32.1519 70.2387 32.3199 70.0352 32.3199Z" fill="white"/>
<path fill-rule="evenodd" clip-rule="evenodd" d="M43.7224 27.4599C43.7224 28.2279 43.7463 28.8759 43.3513 29.5599C43.04 30.1119 42.5372 30.4599 41.9866 30.4599C41.2324 30.4599 40.7895 29.8839 40.7895 29.0199C40.7895 27.3399 42.2978 27.0279 43.7224 27.0279V27.4599ZM45.7095 32.2839C45.5778 32.4039 45.3863 32.4039 45.2426 32.3319C44.5843 31.7799 44.4645 31.5279 44.1054 31.0119C43.0161 32.1159 42.2499 32.4519 40.8494 32.4519C39.1854 32.4519 37.8926 31.4199 37.8926 29.3679C37.8926 27.7599 38.7664 26.6679 39.9994 26.1279C41.0648 25.6599 42.5732 25.5759 43.7104 25.4439V25.1919C43.7104 24.7239 43.7463 24.1599 43.471 23.7519C43.2316 23.3919 42.7647 23.2359 42.3577 23.2359C41.6035 23.2359 40.9332 23.6199 40.7656 24.4239C40.7297 24.6039 40.598 24.7839 40.4184 24.7839L38.5031 24.5799C38.3355 24.5439 38.1679 24.4119 38.2038 24.1599C38.6467 21.8319 40.7416 21.1239 42.621 21.1239C43.5787 21.1239 44.8356 21.3759 45.5898 22.1079C46.5475 23.0079 46.4637 24.2079 46.4637 25.5159V28.5999C46.4637 29.5239 46.8467 29.9319 47.2059 30.4359C47.3375 30.6159 47.3615 30.8319 47.1939 30.9639C46.8228 31.3239 46.1045 31.9479 45.7095 32.2839Z" fill="white"/>
<path fill-rule="evenodd" clip-rule="evenodd" d="M17.8298 27.4599C17.8298 28.2279 17.8537 28.8759 17.4587 29.5599C17.1474 30.1119 16.6447 30.4599 16.094 30.4599C15.3399 30.4599 14.8969 29.8839 14.8969 29.0199C14.8969 27.3399 16.4053 27.0279 17.8298 27.0279V27.4599ZM19.8169 32.2839C19.6853 32.4039 19.4937 32.4039 19.3501 32.3319C18.6917 31.7799 18.572 31.5279 18.2128 31.0119C17.1235 32.1159 16.3574 32.4519 14.9568 32.4519C13.2928 32.4519 12 31.4199 12 29.3679C12 27.7599 12.8739 26.6679 14.1069 26.1279C15.1723 25.6599 16.6806 25.5759 17.8178 25.4439V25.1919C17.8178 24.7239 17.8537 24.1599 17.5784 23.7519C17.339 23.3919 16.8721 23.2359 16.4651 23.2359C15.7109 23.2359 15.0406 23.6199 14.873 24.4239C14.8371 24.6039 14.7054 24.7839 14.5258 24.7839L12.6105 24.5799C12.4429 24.5439 12.2634 24.4119 12.3112 24.1599C12.7542 21.8319 14.8491 21.1239 16.7285 21.1239C17.6861 21.1239 18.9431 21.3759 19.6972 22.1079C20.6549 23.0079 20.5711 24.2079 20.5711 25.5159V28.5999C20.5711 29.5239 20.9542 29.9319 21.3133 30.4359C21.445 30.6159 21.4689 30.8319 21.3013 30.9639C20.9422 31.3239 20.2239 31.9479 19.8169 32.2839Z" fill="white"/>
<path d="M83.8242 32.428C82.8665 32.428 82.0764 32.14 81.4779 31.564C80.8793 30.988 80.5801 30.232 80.5801 29.308C80.5801 28.288 80.9512 27.472 81.6814 26.872C82.4116 26.26 83.4052 25.96 84.6382 25.96C85.3684 25.96 86.1585 26.068 87.0323 26.272V25.048C87.0323 24.352 86.8767 23.86 86.5775 23.584C86.2782 23.308 85.7515 23.176 84.9853 23.176C84.5304 23.176 84.0277 23.224 83.477 23.308C82.9264 23.404 82.3996 23.524 81.9088 23.692C81.7772 23.728 81.6575 23.752 81.5617 23.752C81.3821 23.752 81.2983 23.62 81.2983 23.356V22.588C81.2983 22.396 81.3223 22.252 81.3821 22.18C81.442 22.096 81.5856 22.012 81.8131 21.916C82.8904 21.508 84.0756 21.292 85.3804 21.292C86.7331 21.292 87.7147 21.568 88.3611 22.12C89.0075 22.672 89.3188 23.536 89.3188 24.7V31.66C89.3188 31.96 89.1631 32.116 88.8639 32.116H87.7865C87.4872 32.116 87.3077 31.984 87.2718 31.708L87.164 31.108C86.6852 31.516 86.1465 31.84 85.5719 32.08C84.9853 32.32 84.3988 32.428 83.8242 32.428ZM84.5065 30.7C84.9015 30.7 85.3205 30.616 85.7634 30.436C86.2064 30.268 86.6253 30.016 87.0443 29.704V27.724C86.3141 27.568 85.6677 27.496 85.105 27.496C83.6805 27.496 82.9623 28.048 82.9623 29.176C82.9623 29.656 83.0939 30.028 83.3693 30.304C83.6446 30.556 84.0277 30.7 84.5065 30.7Z" fill="white"/>
<path d="M91.9764 36.376C91.6771 36.376 91.5215 36.22 91.5215 35.92V22.06C91.5215 21.76 91.6771 21.604 91.9764 21.604H93.1136C93.4129 21.604 93.5924 21.736 93.6523 22.012L93.772 22.648C94.2508 22.204 94.7895 21.868 95.3641 21.64C95.9507 21.4 96.5612 21.292 97.1837 21.292C98.4885 21.292 99.5299 21.784 100.308 22.756C101.086 23.74 101.469 25.048 101.469 26.704C101.469 27.844 101.278 28.852 100.907 29.704C100.524 30.556 99.9968 31.216 99.3264 31.672C98.6561 32.128 97.878 32.356 97.0161 32.356C96.4415 32.356 95.8789 32.26 95.3402 32.056C94.8015 31.852 94.3346 31.576 93.9396 31.216V35.92C93.9396 36.22 93.784 36.376 93.4847 36.376H91.9764ZM96.4056 30.424C97.2794 30.424 97.9378 30.124 98.3688 29.524C98.7997 28.924 99.0032 28.012 99.0032 26.788C99.0032 25.576 98.7997 24.676 98.3688 24.088C97.9378 23.5 97.3034 23.212 96.4175 23.212C95.5197 23.212 94.6937 23.476 93.9396 23.992V29.62C94.7297 30.16 95.5437 30.424 96.4056 30.424Z" fill="white"/>
<path d="M103.683 36.376C103.384 36.376 103.229 36.22 103.229 35.92V22.06C103.229 21.76 103.384 21.604 103.683 21.604H104.821C105.12 21.604 105.299 21.736 105.359 22.012L105.479 22.648C105.958 22.204 106.497 21.868 107.071 21.64C107.658 21.4 108.268 21.292 108.891 21.292C110.196 21.292 111.237 21.784 112.015 22.756C112.793 23.74 113.176 25.048 113.176 26.704C113.176 27.844 112.985 28.852 112.614 29.704C112.231 30.556 111.704 31.216 111.033 31.672C110.363 32.128 109.585 32.356 108.723 32.356C108.149 32.356 107.586 32.26 107.047 32.056C106.509 31.852 106.042 31.576 105.647 31.216V35.92C105.647 36.22 105.491 36.376 105.192 36.376H103.683ZM108.125 30.424C108.998 30.424 109.657 30.124 110.088 29.524C110.519 28.924 110.722 28.012 110.722 26.788C110.722 25.576 110.519 24.676 110.088 24.088C109.657 23.5 109.022 23.212 108.137 23.212C107.239 23.212 106.413 23.476 105.659 23.992V29.62C106.437 30.16 107.251 30.424 108.125 30.424Z" fill="white"/>
<path d="M117.762 32.4279C116.672 32.4279 115.667 32.2479 114.757 31.8879C114.541 31.8039 114.398 31.7199 114.338 31.6239C114.278 31.5399 114.242 31.3839 114.242 31.1799V30.4359C114.242 30.1599 114.338 30.0279 114.529 30.0279C114.625 30.0279 114.817 30.0759 115.104 30.1479C116.086 30.4239 116.96 30.5559 117.75 30.5559C118.432 30.5559 118.935 30.4479 119.258 30.2319C119.569 30.0159 119.737 29.6919 119.737 29.2479C119.737 28.9479 119.641 28.6959 119.449 28.5159C119.258 28.3239 118.899 28.1439 118.372 27.9519L116.66 27.2919C115.116 26.7039 114.35 25.7319 114.35 24.3999C114.35 23.4399 114.709 22.6719 115.427 22.1199C116.146 21.5679 117.103 21.2799 118.288 21.2799C119.138 21.2799 120 21.4239 120.862 21.7119C121.066 21.7839 121.209 21.8559 121.269 21.9519C121.341 22.0479 121.377 22.1919 121.377 22.4199V23.1399C121.377 23.2959 121.353 23.3919 121.305 23.4639C121.257 23.5359 121.173 23.5599 121.054 23.5599C120.982 23.5599 120.814 23.5239 120.539 23.4519C119.677 23.2479 118.971 23.1399 118.432 23.1399C117.798 23.1399 117.331 23.2359 117.043 23.4159C116.744 23.5959 116.6 23.8959 116.6 24.2919C116.6 24.5919 116.708 24.8439 116.924 25.0239C117.139 25.2039 117.522 25.4079 118.073 25.6359L119.665 26.2599C120.491 26.5719 121.089 26.9559 121.449 27.3999C121.808 27.8439 121.999 28.3959 121.999 29.0799C121.999 30.1119 121.628 30.9279 120.886 31.5279C120.108 32.1279 119.078 32.4279 117.762 32.4279Z" fill="white"/>
<path d="M127.734 32.26C126.644 32.26 125.842 32.008 125.327 31.492C124.801 30.988 124.537 30.208 124.537 29.152V23.452H123.221C122.921 23.452 122.766 23.296 122.766 22.996V22.396C122.766 22.216 122.802 22.084 122.873 22.012C122.945 21.94 123.053 21.88 123.209 21.856L124.633 21.652L124.944 19.156C124.956 18.988 125.004 18.868 125.088 18.808C125.172 18.736 125.291 18.7 125.459 18.7H126.536C126.836 18.7 126.991 18.856 126.991 19.156V21.592H129.529C129.828 21.592 129.984 21.748 129.984 22.048V22.996C129.984 23.296 129.828 23.452 129.529 23.452H126.991V29.032C126.991 29.5 127.099 29.836 127.326 30.028C127.554 30.232 127.937 30.328 128.476 30.328C128.787 30.328 129.05 30.304 129.242 30.268C129.433 30.232 129.589 30.208 129.721 30.208C129.96 30.208 130.068 30.34 130.068 30.604V31.348C130.068 31.564 130.032 31.72 129.96 31.816C129.888 31.912 129.745 31.984 129.541 32.032C128.931 32.188 128.344 32.26 127.734 32.26Z" fill="white"/>
<path d="M135.765 32.428C134.173 32.428 132.928 31.936 132.03 30.952C131.132 29.968 130.689 28.6 130.689 26.848C130.689 25.096 131.132 23.74 132.03 22.756C132.928 21.784 134.173 21.292 135.765 21.292C137.357 21.292 138.602 21.784 139.5 22.756C140.398 23.74 140.841 25.096 140.841 26.848C140.841 28.6 140.398 29.968 139.5 30.952C138.602 31.936 137.357 32.428 135.765 32.428ZM135.765 30.508C137.501 30.508 138.363 29.284 138.363 26.848C138.363 24.424 137.501 23.212 135.765 23.212C134.029 23.212 133.167 24.424 133.167 26.848C133.167 29.284 134.029 30.508 135.765 30.508Z" fill="white"/>
<path d="M143.019 32.1159C142.72 32.1159 142.564 31.9599 142.564 31.6599V22.0479C142.564 21.7479 142.72 21.5919 143.019 21.5919H144.109C144.3 21.5919 144.432 21.6159 144.516 21.6759C144.588 21.7359 144.647 21.8319 144.671 21.9879L144.923 23.1639C145.473 22.5639 145.988 22.1319 146.467 21.8799C146.946 21.6279 147.472 21.5079 148.035 21.5079H148.119C148.298 21.5079 148.442 21.5199 148.562 21.5559C148.682 21.5919 148.765 21.6519 148.813 21.7359C148.861 21.8199 148.885 21.9759 148.885 22.1919V23.3079C148.885 23.5959 148.765 23.7399 148.514 23.7399C148.43 23.7399 148.322 23.7279 148.179 23.7159C148.035 23.7039 147.879 23.6919 147.712 23.6919C146.694 23.6919 145.797 23.9559 145.006 24.4719V31.6479C145.006 31.9479 144.851 32.1039 144.552 32.1039H143.019V32.1159Z" fill="white"/>
<path d="M154.703 32.428C152.967 32.428 151.662 31.96 150.765 31.024C149.867 30.088 149.424 28.72 149.424 26.932C149.424 25.156 149.867 23.764 150.729 22.78C151.603 21.784 152.824 21.292 154.392 21.292C155.744 21.292 156.774 21.664 157.492 22.396C158.21 23.128 158.57 24.172 158.57 25.528C158.57 25.996 158.534 26.488 158.462 26.992C158.438 27.172 158.378 27.292 158.306 27.352C158.234 27.412 158.127 27.448 158.007 27.448H151.65C151.686 28.492 151.986 29.26 152.524 29.752C153.063 30.244 153.901 30.484 155.026 30.484C155.852 30.484 156.714 30.352 157.624 30.088C157.732 30.064 157.815 30.04 157.875 30.028C157.935 30.016 157.983 30.004 158.019 30.004C158.222 30.004 158.33 30.136 158.33 30.412V31.156C158.33 31.36 158.294 31.504 158.234 31.6C158.174 31.684 158.031 31.78 157.815 31.852C156.918 32.248 155.876 32.428 154.703 32.428ZM156.439 25.816V25.648C156.439 24.808 156.259 24.172 155.888 23.728C155.529 23.284 154.99 23.068 154.296 23.068C153.554 23.068 152.955 23.32 152.476 23.812C151.998 24.304 151.746 24.976 151.674 25.816H156.439Z" fill="white"/>
<path d="M60.1466 15.1361C59.6319 15.1361 59.2249 14.992 58.9256 14.704C58.6143 14.416 58.4707 14.0201 58.4707 13.528C58.4707 13.0001 58.6622 12.58 59.0333 12.2681C59.4044 11.9561 59.9072 11.8 60.5417 11.8C60.9487 11.8 61.3916 11.8601 61.8944 11.9801V11.2601C61.8944 10.8761 61.8106 10.6001 61.631 10.4441C61.4514 10.2881 61.1522 10.2041 60.7332 10.2041C60.2424 10.2041 59.7516 10.2761 59.2847 10.4201C59.1171 10.4681 59.0094 10.4921 58.9735 10.4921C58.8897 10.4921 58.8418 10.432 58.8418 10.3001V10.0121C58.8418 9.91605 58.8538 9.84405 58.8897 9.80805C58.9136 9.76005 58.9735 9.72405 59.0573 9.68805C59.2847 9.59205 59.56 9.50805 59.9072 9.44805C60.2544 9.38805 60.5895 9.35205 60.9247 9.35205C61.6071 9.35205 62.1098 9.49605 62.433 9.78405C62.7563 10.0721 62.9119 10.5041 62.9119 11.0801V14.7761C62.9119 14.92 62.8401 14.9921 62.6964 14.9921H62.2295C62.0979 14.9921 62.0141 14.9201 61.9901 14.7881L61.9422 14.4281C61.6789 14.656 61.4036 14.8241 61.0803 14.9441C60.7691 15.0641 60.4579 15.1361 60.1466 15.1361ZM60.41 14.32C60.6494 14.32 60.8888 14.272 61.1522 14.1761C61.4155 14.08 61.6549 13.9481 61.8944 13.768V12.664C61.5113 12.568 61.1282 12.5201 60.7571 12.5201C59.9431 12.5201 59.5361 12.832 59.5361 13.456C59.5361 13.732 59.6079 13.9361 59.7635 14.0921C59.9072 14.2481 60.1227 14.32 60.41 14.32Z" fill="white"/>
<path d="M65.8558 14.992C65.76 14.992 65.6762 14.98 65.6403 14.944C65.5924 14.92 65.5446 14.836 65.4967 14.692L63.5933 9.89197C63.5813 9.84397 63.5574 9.80797 63.5454 9.75997C63.5215 9.71197 63.5215 9.67597 63.5215 9.63997C63.5215 9.54397 63.5694 9.49597 63.6771 9.49597H64.3116C64.4193 9.49597 64.4911 9.50797 64.539 9.54397C64.5869 9.56797 64.6228 9.65197 64.6827 9.79597L66.1551 14.008L67.6275 9.79597C67.6754 9.66397 67.7232 9.57997 67.7711 9.54397C67.807 9.53197 67.8789 9.51997 67.9866 9.51997H68.5851C68.6929 9.51997 68.7527 9.56797 68.7527 9.66397C68.7527 9.69997 68.7408 9.73597 68.7288 9.78397C68.7168 9.83197 68.6929 9.86797 68.6809 9.91597L66.7895 14.716C66.7416 14.848 66.6938 14.932 66.6459 14.968C66.598 14.992 66.5262 15.016 66.4304 15.016H65.8558V14.992Z" fill="white"/>
<path d="M70.8595 15.1361C70.3448 15.1361 69.9378 14.992 69.6385 14.704C69.3272 14.416 69.1836 14.0201 69.1836 13.528C69.1836 13.0001 69.3751 12.58 69.7462 12.2681C70.1173 11.9561 70.6201 11.8 71.2545 11.8C71.6615 11.8 72.1045 11.8601 72.6072 11.9801V11.2601C72.6072 10.8761 72.5234 10.6001 72.3439 10.4441C72.1643 10.2881 71.8651 10.2041 71.4461 10.2041C70.9553 10.2041 70.4645 10.2761 69.9976 10.4201C69.83 10.4681 69.7223 10.4921 69.6864 10.4921C69.6026 10.4921 69.5547 10.432 69.5547 10.3001V10.0121C69.5547 9.91605 69.5667 9.84405 69.6026 9.80805C69.6265 9.76005 69.6864 9.72405 69.7702 9.68805C69.9976 9.59205 70.2729 9.50805 70.6201 9.44805C70.9672 9.38805 71.3024 9.35205 71.6376 9.35205C72.3199 9.35205 72.8227 9.49605 73.1459 9.78405C73.4691 10.0721 73.6248 10.5041 73.6248 11.0801V14.7761C73.6248 14.92 73.5529 14.9921 73.4093 14.9921H72.9424C72.8107 14.9921 72.7269 14.9201 72.703 14.7881L72.6551 14.4281C72.3918 14.656 72.1164 14.8241 71.7932 14.9441C71.47 15.0641 71.1588 15.1361 70.8595 15.1361ZM71.1109 14.32C71.3503 14.32 71.5897 14.272 71.8531 14.1761C72.1164 14.08 72.3559 13.9481 72.5953 13.768V12.664C72.2122 12.568 71.8291 12.5201 71.458 12.5201C70.644 12.5201 70.237 12.832 70.237 13.456C70.237 13.732 70.3089 13.9361 70.4645 14.0921C70.6201 14.2481 70.8356 14.32 71.1109 14.32Z" fill="white"/>
<path d="M75.6137 8.54795C75.4102 8.54795 75.2426 8.48795 75.1229 8.36795C75.0032 8.24795 74.9434 8.09195 74.9434 7.89995C74.9434 7.70795 75.0032 7.55195 75.1229 7.43195C75.2426 7.31195 75.4102 7.25195 75.6137 7.25195C75.8172 7.25195 75.9848 7.31195 76.1045 7.43195C76.2242 7.55195 76.2841 7.70795 76.2841 7.89995C76.2841 8.09195 76.2242 8.24795 76.1045 8.36795C75.9848 8.48795 75.8292 8.54795 75.6137 8.54795ZM75.2905 14.992C75.1469 14.992 75.075 14.92 75.075 14.776V9.73595C75.075 9.59195 75.1469 9.51995 75.2905 9.51995H75.925C76.0686 9.51995 76.1404 9.59195 76.1404 9.73595V14.776C76.1404 14.92 76.0686 14.992 75.925 14.992H75.2905Z" fill="white"/>
<path d="M78.7962 15.04C78.4131 15.04 78.1258 14.932 77.9223 14.716C77.7188 14.5 77.623 14.176 77.623 13.768V7.216C77.623 7.072 77.6949 7 77.8385 7H78.473C78.6166 7 78.6884 7.072 78.6884 7.216V13.708C78.6884 13.876 78.7244 13.996 78.7962 14.068C78.868 14.14 78.9757 14.176 79.1314 14.176C79.1793 14.176 79.2152 14.176 79.263 14.164C79.3109 14.152 79.3468 14.152 79.3828 14.152C79.4546 14.152 79.5025 14.176 79.5264 14.2C79.5503 14.236 79.5623 14.296 79.5623 14.356V14.704C79.5623 14.776 79.5503 14.836 79.5144 14.872C79.4785 14.908 79.4306 14.944 79.3468 14.968C79.1793 15.028 78.9877 15.04 78.7962 15.04Z" fill="white"/>
<path d="M81.8615 15.1361C81.3467 15.1361 80.9397 14.992 80.6404 14.704C80.3292 14.416 80.1855 14.0201 80.1855 13.528C80.1855 13.0001 80.3771 12.58 80.7482 12.2681C81.1193 11.9561 81.622 11.8 82.2565 11.8C82.6635 11.8 83.1064 11.8601 83.6092 11.9801V11.2601C83.6092 10.8761 83.5254 10.6001 83.3458 10.4441C83.1663 10.2881 82.867 10.2041 82.448 10.2041C81.9572 10.2041 81.4664 10.2761 80.9996 10.4201C80.832 10.4681 80.7242 10.4921 80.6883 10.4921C80.6045 10.4921 80.5566 10.432 80.5566 10.3001V10.0121C80.5566 9.91605 80.5686 9.84405 80.6045 9.80805C80.6285 9.76005 80.6883 9.72405 80.7721 9.68805C80.9996 9.59205 81.2749 9.50805 81.622 9.44805C81.9692 9.38805 82.3044 9.35205 82.6396 9.35205C83.3219 9.35205 83.8247 9.49605 84.1479 9.78405C84.4711 10.0721 84.6387 10.5041 84.6387 11.0801V14.7761C84.6387 14.92 84.5669 14.9921 84.4232 14.9921H83.9564C83.8247 14.9921 83.7409 14.9201 83.7169 14.7881L83.6691 14.4281C83.4057 14.656 83.1304 14.8241 82.8072 14.9441C82.4839 15.0641 82.1727 15.1361 81.8615 15.1361ZM82.1248 14.32C82.3642 14.32 82.6037 14.272 82.867 14.1761C83.1304 14.08 83.3698 13.9481 83.6092 13.768V12.664C83.2261 12.568 82.8431 12.5201 82.472 12.5201C81.658 12.5201 81.2509 12.832 81.2509 13.456C81.2509 13.732 81.3228 13.9361 81.4784 14.0921C81.634 14.2481 81.8495 14.32 82.1248 14.32Z" fill="white"/>
<path d="M88.7804 15.112C88.122 15.112 87.5354 14.884 87.0446 14.416L86.9728 14.776C86.9489 14.92 86.8651 14.992 86.7214 14.992H86.2545C86.1109 14.992 86.0391 14.92 86.0391 14.776V7.216C86.0391 7.072 86.1109 7 86.2545 7H86.889C87.0326 7 87.1045 7.072 87.1045 7.216V10.036C87.6432 9.58 88.2297 9.352 88.8522 9.352C89.5465 9.352 90.0972 9.604 90.5042 10.108C90.9112 10.612 91.1027 11.308 91.1027 12.184C91.1027 13.072 90.8872 13.78 90.4683 14.308C90.0493 14.848 89.4867 15.112 88.7804 15.112ZM88.529 14.248C89.5226 14.248 90.0134 13.576 90.0134 12.244C90.0134 11.56 89.8937 11.056 89.6543 10.72C89.4148 10.384 89.0437 10.228 88.5529 10.228C88.0382 10.228 87.5594 10.396 87.1045 10.72V13.732C87.5594 14.068 88.0382 14.248 88.529 14.248Z" fill="white"/>
<path d="M93.4368 15.04C93.0537 15.04 92.7664 14.932 92.5629 14.716C92.3594 14.5 92.2637 14.176 92.2637 13.768V7.216C92.2637 7.072 92.3355 7 92.4791 7H93.1136C93.2572 7 93.3291 7.072 93.3291 7.216V13.708C93.3291 13.876 93.365 13.996 93.4368 14.068C93.5086 14.14 93.6164 14.176 93.772 14.176C93.8199 14.176 93.8558 14.176 93.9037 14.164C93.9516 14.152 93.9875 14.152 94.0234 14.152C94.0952 14.152 94.1431 14.176 94.167 14.2C94.191 14.236 94.2029 14.296 94.2029 14.356V14.704C94.2029 14.776 94.191 14.836 94.1551 14.872C94.1192 14.908 94.0713 14.944 93.9875 14.968C93.8199 15.028 93.6283 15.04 93.4368 15.04Z" fill="white"/>
<path d="M97.5799 15.148C96.6941 15.148 96.0237 14.908 95.5808 14.416C95.1259 13.924 94.8984 13.2041 94.8984 12.2441C94.8984 11.3321 95.1259 10.6241 95.5808 10.1081C96.0357 9.59205 96.6701 9.35205 97.4722 9.35205C98.1545 9.35205 98.6812 9.54405 99.0403 9.92805C99.4114 10.3121 99.591 10.8641 99.591 11.5601C99.591 11.788 99.5671 12.028 99.5311 12.256C99.5192 12.34 99.4952 12.4001 99.4593 12.4241C99.4234 12.4481 99.3755 12.4721 99.3037 12.4721H95.9279C95.9399 13.0961 96.0955 13.5521 96.3828 13.8401C96.6701 14.1281 97.125 14.284 97.7355 14.284C97.951 14.284 98.1545 14.2721 98.358 14.2361C98.5615 14.2001 98.8009 14.14 99.1122 14.056C99.1601 14.044 99.2079 14.032 99.2438 14.0201C99.2798 14.008 99.3157 14.008 99.3396 14.008C99.4354 14.008 99.4833 14.068 99.4833 14.2V14.5C99.4833 14.596 99.4713 14.656 99.4354 14.704C99.4114 14.74 99.3396 14.788 99.2558 14.824C99.0403 14.92 98.789 14.992 98.4897 15.052C98.1904 15.112 97.8792 15.148 97.5799 15.148ZM98.6094 11.7761C98.6214 11.7161 98.6214 11.62 98.6214 11.5C98.6214 11.056 98.5256 10.7321 98.3101 10.5041C98.1066 10.2761 97.8073 10.1681 97.4123 10.1681C96.9574 10.1681 96.6103 10.3001 96.3589 10.5761C96.1075 10.8521 95.9638 11.2481 95.9279 11.7761H98.6094Z" fill="white"/>
<path d="M104.701 15.1361C104.187 15.1361 103.78 14.992 103.48 14.704C103.181 14.416 103.025 14.0201 103.025 13.528C103.025 13.0001 103.217 12.58 103.588 12.2681C103.959 11.9561 104.462 11.8 105.096 11.8C105.503 11.8 105.946 11.8601 106.449 11.9801V11.2601C106.449 10.8761 106.365 10.6001 106.186 10.4441C106.006 10.2881 105.707 10.2041 105.288 10.2041C104.797 10.2041 104.306 10.2761 103.839 10.4201C103.672 10.4681 103.576 10.4921 103.528 10.4921C103.444 10.4921 103.396 10.432 103.396 10.3001V10.0121C103.396 9.91605 103.408 9.84405 103.444 9.80805C103.468 9.76005 103.528 9.72405 103.612 9.68805C103.839 9.59205 104.115 9.50805 104.462 9.44805C104.809 9.38805 105.144 9.35205 105.479 9.35205C106.162 9.35205 106.665 9.49605 106.988 9.78405C107.311 10.0721 107.479 10.5041 107.479 11.0801V14.7761C107.479 14.92 107.407 14.9921 107.263 14.9921H106.796C106.665 14.9921 106.581 14.9201 106.557 14.7881L106.509 14.4281C106.246 14.656 105.958 14.8241 105.647 14.9441C105.336 15.0641 105.013 15.1361 104.701 15.1361ZM104.965 14.32C105.204 14.32 105.455 14.272 105.707 14.1761C105.97 14.08 106.21 13.9481 106.449 13.768V12.664C106.066 12.568 105.683 12.5201 105.312 12.5201C104.498 12.5201 104.091 12.832 104.091 13.456C104.091 13.732 104.163 13.9361 104.318 14.0921C104.474 14.2481 104.677 14.32 104.965 14.32Z" fill="white"/>
<path d="M110.758 15.064C109.741 15.064 109.226 14.548 109.226 13.528V10.36H108.448C108.304 10.36 108.232 10.288 108.232 10.144V9.86801C108.232 9.79601 108.244 9.74801 108.28 9.71201C108.316 9.67601 108.376 9.65201 108.472 9.64001L109.262 9.54401L109.406 8.20001C109.418 8.05601 109.501 7.98401 109.633 7.98401H110.088C110.232 7.98401 110.303 8.05601 110.303 8.20001V9.52001H111.704C111.848 9.52001 111.919 9.59201 111.919 9.73601V10.144C111.919 10.288 111.848 10.36 111.704 10.36H110.291V13.48C110.291 13.744 110.351 13.936 110.471 14.044C110.591 14.152 110.794 14.2 111.081 14.2C111.213 14.2 111.381 14.188 111.584 14.152C111.692 14.128 111.764 14.116 111.8 14.116C111.86 14.116 111.895 14.128 111.919 14.164C111.943 14.2 111.955 14.248 111.955 14.32V14.608C111.955 14.704 111.943 14.776 111.907 14.824C111.884 14.872 111.824 14.908 111.74 14.932C111.465 15.028 111.129 15.064 110.758 15.064Z" fill="white"/>
</g>
<defs>
<clipPath id="clip0_1020_1049">
<rect width="171" height="48" fill="white"/>
</clipPath>
</defs>
</svg>
