<svg width="136" height="48" viewBox="0 0 136 48" fill="none" xmlns="http://www.w3.org/2000/svg">
<g clip-path="url(#clip0_1020_1047)">
<rect x="0.5" y="0.5" width="135" height="47" rx="7.5" fill="black" stroke="#949AA4"/>
<path d="M26.3164 9.99951C26.4891 11.5224 25.8558 13.052 24.9162 14.1511C23.976 15.2509 22.4348 16.1045 20.924 15.9915C20.7183 14.4989 21.4804 12.9424 22.3519 11.9697C23.3231 10.8713 24.9614 10.052 26.3164 9.99951Z" fill="white"/>
<path d="M31.9085 29.0704C31.7417 29.005 28.3397 27.6719 28.3027 23.8126C28.2723 20.5909 30.9692 19.0077 31.2005 18.8719C31.2053 18.8691 31.2091 18.8669 31.2117 18.8653C29.63 16.6287 27.1669 16.322 26.29 16.2863C25.0072 16.1608 23.7628 16.6349 22.7468 17.022C22.102 17.2676 21.5492 17.4783 21.137 17.4783C20.6767 17.4783 20.108 17.2604 19.47 17.0161C18.6346 16.6961 17.6804 16.3306 16.6949 16.3489C14.4091 16.3805 12.3041 17.6316 11.1258 19.6072C8.75359 23.5853 10.5201 29.4777 12.8315 32.7065C13.9626 34.2845 15.3109 36.0623 17.0807 35.9978C17.8726 35.9675 18.4357 35.7359 19.0179 35.4966C19.6897 35.2203 20.3869 34.9336 21.4904 34.9336C22.5448 34.9336 23.2113 35.2121 23.852 35.4798C24.4638 35.7354 25.0522 35.9813 25.9326 35.9655C27.7665 35.9325 28.9306 34.3545 30.053 32.771C31.3141 30.9894 31.8547 29.2638 31.9109 29.0843C31.9125 29.0792 31.9137 29.0754 31.9145 29.0728C31.9138 29.0725 31.9117 29.0717 31.9085 29.0704Z" fill="white"/>
<path d="M48.3882 32.2247H43.061L41.7817 36.2131H39.5254L44.5711 21.4569H46.9154L51.9612 36.2131H49.6663L48.3882 32.2247ZM43.6128 30.3842H47.8354L45.7538 23.9113H45.6955L43.6128 30.3842Z" fill="white"/>
<path d="M62.8578 30.8341C62.8578 34.1773 61.1631 36.3253 58.6056 36.3253C57.9577 36.3611 57.3134 36.2035 56.7464 35.8706C56.1795 35.5377 55.7127 35.043 55.3997 34.443H55.3513V39.7718H53.2598V25.4543H55.2843V27.2437H55.3227C55.6502 26.6466 56.1248 26.1544 56.6961 25.8195C57.2674 25.4846 57.914 25.3195 58.5671 25.3417C61.1532 25.3417 62.8578 27.5001 62.8578 30.8341ZM60.7081 30.8341C60.7081 28.6559 59.642 27.2239 58.0154 27.2239C56.4174 27.2239 55.3425 28.6861 55.3425 30.8341C55.3425 33.0018 56.4174 34.4535 58.0154 34.4535C59.642 34.4535 60.7081 33.032 60.7081 30.8341Z" fill="white"/>
<path d="M74.0727 30.8341C74.0727 34.1773 72.3779 36.3253 69.8204 36.3253C69.1726 36.3611 68.5283 36.2035 67.9613 35.8706C67.3943 35.5377 66.9276 35.043 66.6145 34.443H66.5661V39.7718H64.4746V25.4543H66.4991V27.2437H66.5375C66.865 26.6466 67.3396 26.1544 67.9109 25.8195C68.4822 25.4846 69.1288 25.3195 69.7819 25.3417C72.368 25.3417 74.0727 27.5001 74.0727 30.8341ZM71.9229 30.8341C71.9229 28.6559 70.8568 27.2239 69.2302 27.2239C67.6322 27.2239 66.5573 28.6861 66.5573 30.8341C66.5573 33.0018 67.6322 34.4535 69.2302 34.4535C70.8568 34.4535 71.9229 33.032 71.9229 30.8341H71.9229Z" fill="white"/>
<path d="M81.4847 32.1013C81.6397 33.5646 82.9861 34.5254 84.8259 34.5254C86.5887 34.5254 87.8571 33.5645 87.8571 32.2451C87.8571 31.0997 87.0921 30.4139 85.2809 29.9439L83.4696 29.4832C80.9034 28.8288 79.712 27.5616 79.712 25.5052C79.712 22.9592 81.8134 21.2104 84.7973 21.2104C87.7504 21.2104 89.7749 22.9592 89.843 25.5052H87.7317C87.6053 24.0326 86.4524 23.1438 84.7676 23.1438C83.0827 23.1438 81.9298 24.0431 81.9298 25.3521C81.9298 26.3953 82.6662 27.0092 84.4675 27.4791L86.0073 27.8783C88.8747 28.5943 90.0661 29.8105 90.0661 31.9689C90.0661 34.7296 87.9834 36.4586 84.6709 36.4586C81.5715 36.4586 79.4789 34.7702 79.3438 32.1011L81.4847 32.1013Z" fill="white"/>
<path d="M94.579 22.908V25.454H96.5166V27.2028H94.579V33.1338C94.579 34.0552 94.967 34.4845 95.8187 34.4845C96.0488 34.4803 96.2784 34.4632 96.5067 34.4334V36.1718C96.1238 36.2473 95.7346 36.2815 95.345 36.2739C93.2821 36.2739 92.4776 35.4558 92.4776 33.3693V27.2028H90.9961V25.454H92.4776V22.908H94.579Z" fill="white"/>
<path d="M97.6387 30.834C97.6387 27.449 99.5268 25.3219 102.471 25.3219C105.425 25.3219 107.305 27.4489 107.305 30.834C107.305 34.2283 105.435 36.3461 102.471 36.3461C99.5081 36.3461 97.6387 34.2283 97.6387 30.834ZM105.174 30.834C105.174 28.512 104.166 27.1415 102.471 27.1415C100.776 27.1415 99.7697 28.5224 99.7697 30.834C99.7697 33.1653 100.776 34.5254 102.471 34.5254C104.166 34.5254 105.174 33.1653 105.174 30.834H105.174Z" fill="white"/>
<path d="M109.031 25.4544H111.026V27.2856H111.074C111.209 26.7137 111.527 26.2082 111.973 25.8543C112.419 25.5003 112.968 25.3193 113.525 25.3418C113.766 25.3409 114.007 25.3686 114.242 25.4242V27.4898C113.938 27.3916 113.62 27.3466 113.302 27.3564C112.998 27.3434 112.695 27.3999 112.414 27.5222C112.133 27.6444 111.88 27.8295 111.673 28.0647C111.466 28.2998 111.31 28.5795 111.215 28.8845C111.12 29.1895 111.088 29.5126 111.123 29.8316V36.2129H109.031L109.031 25.4544Z" fill="white"/>
<path d="M123.883 33.0528C123.601 35.0058 121.8 36.3461 119.495 36.3461C116.531 36.3461 114.691 34.2492 114.691 30.8851C114.691 27.5105 116.541 25.3219 119.407 25.3219C122.227 25.3219 123.999 27.3666 123.999 30.6286V31.3852H116.803V31.5187C116.769 31.9146 116.816 32.3135 116.94 32.6888C117.064 33.0641 117.263 33.4072 117.522 33.6955C117.781 33.9837 118.095 34.2104 118.444 34.3604C118.793 34.5105 119.168 34.5806 119.544 34.566C120.038 34.6149 120.534 34.494 120.958 34.2214C121.382 33.9487 121.711 33.5389 121.897 33.0528L123.883 33.0528ZM116.813 29.8418H121.907C121.925 29.4858 121.874 29.1295 121.757 28.7954C121.639 28.4612 121.457 28.1564 121.222 27.9C120.987 27.6436 120.705 27.4412 120.393 27.3055C120.081 27.1697 119.745 27.1036 119.407 27.1113C119.067 27.1092 118.729 27.1782 118.414 27.3146C118.099 27.4509 117.812 27.6518 117.571 27.9057C117.33 28.1596 117.139 28.4614 117.008 28.7937C116.878 29.126 116.812 29.4822 116.813 29.8418V29.8418Z" fill="white"/>
<path d="M43.3475 10.3492C43.786 10.316 44.226 10.386 44.6357 10.554C45.0455 10.7221 45.4149 10.9841 45.7172 11.3211C46.0194 11.6581 46.2471 12.0618 46.3837 12.503C46.5204 12.9442 46.5625 13.4118 46.5073 13.8723C46.5073 16.1375 45.3478 17.4396 43.3475 17.4396H40.9219V10.3492H43.3475ZM41.9649 16.4369H43.231C43.5443 16.4566 43.8579 16.4024 44.1488 16.2781C44.4398 16.1538 44.7009 15.9625 44.913 15.7182C45.1251 15.474 45.283 15.1828 45.3751 14.866C45.4673 14.5492 45.4913 14.2147 45.4456 13.8868C45.488 13.5602 45.4615 13.2277 45.368 12.9132C45.2744 12.5988 45.1161 12.31 44.9045 12.0677C44.6928 11.8253 44.433 11.6354 44.1437 11.5116C43.8544 11.3877 43.5427 11.3329 43.231 11.3512H41.9649V16.4369Z" fill="white"/>
<path d="M47.6851 14.7618C47.6533 14.4101 47.6914 14.0554 47.797 13.7202C47.9026 13.385 48.0734 13.0768 48.2984 12.8154C48.5234 12.554 48.7977 12.3451 49.1037 12.2022C49.4096 12.0593 49.7405 11.9855 50.075 11.9855C50.4096 11.9855 50.7404 12.0593 51.0464 12.2022C51.3523 12.3451 51.6266 12.554 51.8516 12.8154C52.0767 13.0768 52.2475 13.385 52.3531 13.7202C52.4587 14.0554 52.4968 14.4101 52.4649 14.7618C52.4974 15.1138 52.4597 15.4691 52.3544 15.8048C52.2491 16.1405 52.0784 16.4492 51.8533 16.7112C51.6282 16.9731 51.3537 17.1824 51.0475 17.3256C50.7412 17.4688 50.41 17.5428 50.075 17.5428C49.7401 17.5428 49.4088 17.4688 49.1026 17.3256C48.7963 17.1824 48.5218 16.9731 48.2967 16.7112C48.0717 16.4492 47.901 16.1405 47.7956 15.8048C47.6903 15.4691 47.6527 15.1138 47.6851 14.7618ZM51.4362 14.7618C51.4362 13.6019 50.9427 12.9236 50.0767 12.9236C49.2073 12.9236 48.7183 13.6019 48.7183 14.7618C48.7183 15.9309 49.2074 16.604 50.0767 16.604C50.9427 16.604 51.4362 15.9263 51.4362 14.7618H51.4362Z" fill="white"/>
<path d="M58.819 17.4397H57.7815L56.7341 13.4988H56.655L55.612 17.4397H54.5844L53.1875 12.0889H54.2019L55.1097 16.1718H55.1845L56.2264 12.0889H57.1859L58.2278 16.1718H58.3069L59.2103 12.0889H60.2104L58.819 17.4397Z" fill="white"/>
<path d="M61.3828 12.0889H62.3456V12.9389H62.4203C62.5471 12.6336 62.7609 12.3777 63.032 12.2068C63.3031 12.0359 63.6179 11.9586 63.9326 11.9856C64.1792 11.966 64.4268 12.0053 64.6571 12.1005C64.8873 12.1957 65.0943 12.3443 65.2628 12.5354C65.4313 12.7266 65.5568 12.9553 65.6302 13.2046C65.7036 13.4539 65.7229 13.7175 65.6867 13.9758V17.4396H64.6866V14.2409C64.6866 13.3811 64.3327 12.9534 63.593 12.9534C63.4256 12.9452 63.2585 12.9753 63.1031 13.0416C62.9477 13.108 62.8078 13.209 62.6928 13.3378C62.5779 13.4666 62.4907 13.6201 62.4372 13.7878C62.3837 13.9555 62.3652 14.1334 62.3829 14.3094V17.4397H61.3828L61.3828 12.0889Z" fill="white"/>
<path d="M67.2832 10H68.2833V17.4396H67.2832V10Z" fill="white"/>
<path d="M69.6734 14.7619C69.6416 14.4102 69.6797 14.0554 69.7853 13.7202C69.8909 13.385 70.0618 13.0768 70.2868 12.8154C70.5119 12.554 70.7862 12.3452 71.0921 12.2022C71.3981 12.0593 71.729 11.9855 72.0636 11.9855C72.3981 11.9855 72.729 12.0593 73.035 12.2022C73.341 12.3452 73.6153 12.554 73.8403 12.8154C74.0653 13.0768 74.2362 13.385 74.3418 13.7202C74.4474 14.0554 74.4856 14.4102 74.4537 14.7619C74.4861 15.1139 74.4485 15.4692 74.3431 15.8049C74.2377 16.1406 74.067 16.4493 73.8419 16.7113C73.6168 16.9732 73.3423 17.1825 73.036 17.3257C72.7298 17.4689 72.3985 17.5429 72.0636 17.5429C71.7286 17.5429 71.3973 17.4689 71.0911 17.3257C70.7848 17.1825 70.5103 16.9732 70.2852 16.7113C70.0601 16.4493 69.8894 16.1406 69.784 15.8049C69.6786 15.4692 69.641 15.1139 69.6734 14.7619ZM73.4244 14.7619C73.4244 13.602 72.931 12.9237 72.0649 12.9237C71.1956 12.9237 70.7065 13.602 70.7065 14.7619C70.7065 15.931 71.1956 16.6041 72.0649 16.6041C72.931 16.6041 73.4245 15.9264 73.4245 14.7619H73.4244Z" fill="white"/>
<path d="M75.5059 15.9263C75.5059 14.9632 76.1851 14.4079 77.3907 14.329L78.7635 14.2454V13.7836C78.7635 13.2184 78.4096 12.8993 77.7259 12.8993C77.1676 12.8993 76.7808 13.1157 76.6698 13.494H75.7015C75.8037 12.575 76.6225 11.9855 77.7721 11.9855C79.0426 11.9855 79.7592 12.6533 79.7592 13.7836V17.4395H78.7964V16.6876H78.7173C78.5567 16.9573 78.3311 17.1772 78.0637 17.3248C77.7963 17.4724 77.4965 17.5424 77.1951 17.5277C76.9824 17.5511 76.7673 17.5271 76.5639 17.4574C76.3605 17.3876 76.1731 17.2736 76.014 17.1227C75.8548 16.9719 75.7274 16.7874 75.6399 16.5814C75.5523 16.3753 75.5067 16.1522 75.5059 15.9263ZM78.7635 15.4691V15.0218L77.5259 15.1053C76.828 15.1546 76.5115 15.4053 76.5115 15.877C76.5115 16.3586 76.9071 16.6388 77.4512 16.6388C77.6106 16.6559 77.7717 16.6389 77.9247 16.5889C78.0778 16.5388 78.2198 16.4568 78.3422 16.3477C78.4646 16.2386 78.565 16.1045 78.6374 15.9536C78.7097 15.8027 78.7526 15.6379 78.7635 15.4691Z" fill="white"/>
<path d="M81.0723 14.7619C81.0723 13.0711 81.8955 12 83.1759 12C83.4926 11.9846 83.8069 12.0647 84.0821 12.231C84.3573 12.3972 84.582 12.6427 84.7299 12.9388H84.8047V10H85.8048V17.4396H84.8464V16.5942H84.7673C84.6079 16.8883 84.3754 17.1307 84.0949 17.2953C83.8144 17.4599 83.4965 17.5403 83.1759 17.5278C81.8867 17.5278 81.0723 16.4567 81.0723 14.7619ZM82.1054 14.7619C82.1054 15.8968 82.6121 16.5797 83.4595 16.5797C84.3024 16.5797 84.8234 15.887 84.8234 14.7665C84.8234 13.6513 84.2969 12.9487 83.4595 12.9487C82.6175 12.9487 82.1054 13.6363 82.1054 14.7619H82.1054Z" fill="white"/>
<path d="M89.9429 14.7618C89.9111 14.4101 89.9492 14.0554 90.0548 13.7202C90.1604 13.385 90.3312 13.0768 90.5562 12.8154C90.7812 12.554 91.0555 12.3451 91.3615 12.2022C91.6674 12.0593 91.9983 11.9855 92.3328 11.9855C92.6674 11.9855 92.9983 12.0593 93.3042 12.2022C93.6102 12.3451 93.8844 12.554 94.1094 12.8154C94.3345 13.0768 94.5053 13.385 94.6109 13.7202C94.7165 14.0554 94.7546 14.4101 94.7227 14.7618C94.7552 15.1138 94.7175 15.4691 94.6122 15.8048C94.5069 16.1405 94.3362 16.4492 94.1111 16.7112C93.886 16.9731 93.6115 17.1824 93.3053 17.3256C92.999 17.4688 92.6678 17.5428 92.3328 17.5428C91.9979 17.5428 91.6666 17.4688 91.3604 17.3256C91.0541 17.1824 90.7796 16.9731 90.5546 16.7112C90.3295 16.4492 90.1588 16.1405 90.0535 15.8048C89.9481 15.4691 89.9105 15.1138 89.9429 14.7618ZM93.694 14.7618C93.694 13.6019 93.2005 12.9236 92.3345 12.9236C91.4651 12.9236 90.9761 13.6019 90.9761 14.7618C90.9761 15.9309 91.4652 16.604 92.3345 16.604C93.2005 16.604 93.694 15.9263 93.694 14.7618Z" fill="white"/>
<path d="M96.0645 12.0889H97.0272V12.9389H97.102C97.2288 12.6336 97.4426 12.3777 97.7137 12.2068C97.9848 12.0359 98.2996 11.9586 98.6143 11.9856C98.8608 11.966 99.1084 12.0053 99.3387 12.1005C99.569 12.1957 99.776 12.3443 99.9444 12.5354C100.113 12.7266 100.238 12.9553 100.312 13.2046C100.385 13.4539 100.405 13.7175 100.368 13.9758V17.4396H99.3682V14.2409C99.3682 13.3811 99.0143 12.9534 98.2747 12.9534C98.1072 12.9452 97.9401 12.9753 97.7847 13.0416C97.6294 13.108 97.4894 13.209 97.3745 13.3378C97.2595 13.4666 97.1723 13.6201 97.1189 13.7878C97.0654 13.9555 97.0469 14.1334 97.0646 14.3094V17.4397H96.0645V12.0889Z" fill="white"/>
<path d="M106.021 10.7568V12.1134H107.119V13.0029H106.021V15.7543C106.021 16.3148 106.239 16.5602 106.737 16.5602C106.865 16.5598 106.992 16.5516 107.119 16.5358V17.4154C106.939 17.4494 106.757 17.4674 106.575 17.4694C105.462 17.4694 105.019 17.0563 105.019 16.0247V13.0028H104.215V12.1133H105.019V10.7568H106.021Z" fill="white"/>
<path d="M108.486 10H109.478V12.9487H109.557C109.69 12.6405 109.909 12.3832 110.186 12.2116C110.462 12.0401 110.782 11.9628 111.102 11.9902C111.347 11.9761 111.593 12.0193 111.82 12.1168C112.048 12.2143 112.252 12.3636 112.419 12.5542C112.586 12.7447 112.711 12.9717 112.785 13.219C112.859 13.4664 112.88 13.7279 112.847 13.985V17.4396H111.846V14.2455C111.846 13.3908 111.469 12.958 110.763 12.958C110.591 12.9431 110.418 12.968 110.256 13.0311C110.094 13.0941 109.947 13.1937 109.826 13.3229C109.704 13.4521 109.611 13.6078 109.552 13.7791C109.494 13.9504 109.471 14.1331 109.487 14.3145V17.4396H108.486L108.486 10Z" fill="white"/>
<path d="M118.68 15.9949C118.544 16.4839 118.249 16.9069 117.848 17.1899C117.446 17.4729 116.964 17.5979 116.484 17.5429C116.15 17.5522 115.818 17.4847 115.511 17.345C115.205 17.2054 114.93 16.9969 114.708 16.7342C114.485 16.4714 114.319 16.1606 114.221 15.8233C114.124 15.486 114.097 15.1304 114.143 14.7811C114.098 14.4307 114.126 14.0743 114.223 13.736C114.32 13.3977 114.485 13.0855 114.707 12.8204C114.928 12.5553 115.201 12.3436 115.507 12.1996C115.813 12.0555 116.144 11.9825 116.479 11.9856C117.889 11.9856 118.74 13.0027 118.74 14.683V15.0515H115.162V15.1106C115.146 15.307 115.169 15.5047 115.23 15.6909C115.291 15.8772 115.388 16.048 115.515 16.1923C115.642 16.3366 115.797 16.4513 115.968 16.529C116.14 16.6067 116.325 16.6457 116.511 16.6435C116.75 16.6739 116.993 16.6284 117.207 16.5129C117.422 16.3974 117.599 16.217 117.717 15.9949L118.68 15.9949ZM115.161 14.2705H117.721C117.734 14.0909 117.711 13.9105 117.653 13.7409C117.596 13.5713 117.506 13.4163 117.388 13.2857C117.271 13.1552 117.129 13.052 116.971 12.9829C116.814 12.9138 116.644 12.8802 116.474 12.8843C116.301 12.882 116.129 12.9163 115.969 12.9852C115.809 13.054 115.663 13.1561 115.541 13.2852C115.419 13.4144 115.322 13.5682 115.257 13.7374C115.192 13.9066 115.159 14.0878 115.162 14.2705H115.161Z" fill="white"/>
</g>
<defs>
<clipPath id="clip0_1020_1047">
<rect width="136" height="48" fill="white"/>
</clipPath>
</defs>
</svg>
