<svg width="144" height="48" viewBox="0 0 144 48" fill="none" xmlns="http://www.w3.org/2000/svg">
<g clip-path="url(#clip0_1020_1048)">
<rect x="0.5" y="0.5" width="143" height="47" rx="7.5" fill="black" stroke="#949AA4"/>
<path d="M50.7441 13.41C50.7441 14.2366 50.5374 14.9598 50.0208 15.4764C49.4009 16.0963 48.6777 16.4063 47.7478 16.4063C46.8179 16.4063 46.0947 16.0963 45.4748 15.4764C44.8549 14.8565 44.5449 14.1333 44.5449 13.2034C44.5449 12.2735 44.8549 11.5503 45.4748 10.9304C46.0947 10.3104 46.8179 10.0005 47.7478 10.0005C48.1611 10.0005 48.5744 10.1038 48.9877 10.3104C49.4009 10.5171 49.7109 10.7237 49.9175 11.0337L49.4009 11.5503C48.9877 11.0337 48.4711 10.827 47.7478 10.827C47.1279 10.827 46.508 11.0337 46.0947 11.5503C45.5781 11.9636 45.3715 12.5835 45.3715 13.3067C45.3715 14.0299 45.5781 14.6499 46.0947 15.0631C46.6113 15.4764 47.1279 15.7864 47.7478 15.7864C48.4711 15.7864 48.9877 15.5797 49.5042 15.0631C49.8142 14.7532 50.0208 14.3399 50.0208 13.8233H47.7478V13.1001H50.7441C50.7441 13.1001 50.7441 13.3067 50.7441 13.41Z" fill="white" stroke="white" stroke-width="0.281869" stroke-miterlimit="10"/>
<path d="M55.497 10.8269H52.7074V12.7899H55.2904V13.5132H52.7074V15.4762H55.497V16.3028H51.8809V10.1036H55.497V10.8269Z" fill="white" stroke="white" stroke-width="0.281869" stroke-miterlimit="10"/>
<path d="M58.9072 16.3028H58.0806V10.8269H56.3242V10.1036H60.6636V10.8269H58.9072V16.3028Z" fill="white" stroke="white" stroke-width="0.281869" stroke-miterlimit="10"/>
<path d="M63.6602 16.3028V10.1036H64.4867V16.3028H63.6602Z" fill="white" stroke="white" stroke-width="0.281869" stroke-miterlimit="10"/>
<path d="M67.999 16.3028H67.1725V10.8269H65.416V10.1036H69.6521V10.8269H67.8957V16.3028H67.999Z" fill="white" stroke="white" stroke-width="0.281869" stroke-miterlimit="10"/>
<path d="M77.8138 15.4759C77.1939 16.0958 76.4707 16.4058 75.5408 16.4058C74.6109 16.4058 73.8877 16.0958 73.2678 15.4759C72.6478 14.856 72.3379 14.1328 72.3379 13.2029C72.3379 12.273 72.6478 11.5498 73.2678 10.9299C73.8877 10.31 74.6109 10 75.5408 10C76.4707 10 77.1939 10.31 77.8138 10.9299C78.4337 11.5498 78.7437 12.273 78.7437 13.2029C78.7437 14.1328 78.4337 14.856 77.8138 15.4759ZM73.8877 14.9593C74.301 15.3726 74.9209 15.6826 75.5408 15.6826C76.1607 15.6826 76.7806 15.4759 77.1939 14.9593C77.6072 14.5461 77.9171 13.9261 77.9171 13.2029C77.9171 12.4797 77.7105 11.8597 77.1939 11.4465C76.7806 11.0332 76.1607 10.7232 75.5408 10.7232C74.9209 10.7232 74.301 10.9299 73.8877 11.4465C73.4744 11.8597 73.1644 12.4797 73.1644 13.2029C73.1644 13.9261 73.3711 14.5461 73.8877 14.9593Z" fill="white" stroke="white" stroke-width="0.281869" stroke-miterlimit="10"/>
<path d="M79.8789 16.3028V10.1036H80.8088L83.805 14.9596V13.7198V10.1036H84.6316V16.3028H83.805L80.6021 11.2402V12.48V16.3028H79.8789Z" fill="white" stroke="white" stroke-width="0.281869" stroke-miterlimit="10"/>
<path d="M72.1286 25.3948C69.649 25.3948 67.6859 27.2546 67.6859 29.8376C67.6859 32.3172 69.649 34.2803 72.1286 34.2803C74.6083 34.2803 76.5714 32.4205 76.5714 29.8376C76.5714 27.1513 74.6083 25.3948 72.1286 25.3948ZM72.1286 32.4205C70.7855 32.4205 69.649 31.284 69.649 29.7342C69.649 28.1845 70.7855 27.0479 72.1286 27.0479C73.4718 27.0479 74.6083 28.0811 74.6083 29.7342C74.6083 31.284 73.4718 32.4205 72.1286 32.4205ZM62.52 25.3948C60.0403 25.3948 58.0772 27.2546 58.0772 29.8376C58.0772 32.3172 60.0403 34.2803 62.52 34.2803C64.9996 34.2803 66.9627 32.4205 66.9627 29.8376C66.9627 27.1513 64.9996 25.3948 62.52 25.3948ZM62.52 32.4205C61.1768 32.4205 60.0403 31.284 60.0403 29.7342C60.0403 28.1845 61.1768 27.0479 62.52 27.0479C63.8631 27.0479 64.9996 28.0811 64.9996 29.7342C64.9996 31.284 63.8631 32.4205 62.52 32.4205ZM51.0515 26.738V28.5977H55.4942C55.3909 29.6309 54.9776 30.4575 54.461 30.9741C53.8411 31.594 52.8079 32.3172 51.0515 32.3172C48.2619 32.3172 46.1955 30.1475 46.1955 27.3579C46.1955 24.5683 48.3652 22.3986 51.0515 22.3986C52.498 22.3986 53.6345 23.0185 54.461 23.7417L55.8042 22.3986C54.6677 21.3654 53.2212 20.5388 51.1548 20.5388C47.4353 20.5388 44.2324 23.6384 44.2324 27.3579C44.2324 31.0774 47.4353 34.177 51.1548 34.177C53.2212 34.177 54.6677 33.5571 55.9075 32.2139C57.1473 30.9741 57.5606 29.2176 57.5606 27.8745C57.5606 27.4612 57.5606 27.0479 57.4573 26.738H51.0515ZM97.9585 28.1845C97.5452 27.1513 96.512 25.3948 94.239 25.3948C91.966 25.3948 90.1062 27.1513 90.1062 29.8376C90.1062 32.3172 91.966 34.2803 94.4456 34.2803C96.4087 34.2803 97.6485 33.0405 98.0618 32.3172L96.6153 31.284C96.0987 32.0073 95.4788 32.5239 94.4456 32.5239C93.4124 32.5239 92.7925 32.1106 92.2759 31.1807L98.1651 28.701L97.9585 28.1845ZM91.966 29.6309C91.966 27.9778 93.3091 27.0479 94.239 27.0479C94.9622 27.0479 95.6855 27.4612 95.8921 27.9778L91.966 29.6309ZM87.11 33.867H89.073V20.9521H87.11V33.867ZM84.0104 26.3247C83.4938 25.8081 82.6672 25.2915 81.634 25.2915C79.4643 25.2915 77.3979 27.2546 77.3979 29.7342C77.3979 32.2139 79.361 34.0737 81.634 34.0737C82.6672 34.0737 83.4938 33.5571 83.9071 33.0405H84.0104V33.6604C84.0104 35.3135 83.0805 36.2434 81.634 36.2434C80.4975 36.2434 79.671 35.4168 79.4643 34.6936L77.8112 35.4168C78.3278 36.5533 79.5676 37.9998 81.7373 37.9998C84.0104 37.9998 85.8701 36.6566 85.8701 33.4537V25.6015H84.0104V26.3247ZM81.7373 32.4205C80.3942 32.4205 79.2577 31.284 79.2577 29.7342C79.2577 28.1845 80.3942 27.0479 81.7373 27.0479C83.0805 27.0479 84.1137 28.1845 84.1137 29.7342C84.1137 31.284 83.0805 32.4205 81.7373 32.4205ZM106.947 20.9521H102.298V33.867H104.261V29.011H106.947C109.117 29.011 111.183 27.4612 111.183 24.9816C111.183 22.5019 109.117 20.9521 106.947 20.9521ZM107.051 27.1513H104.261V22.7085H107.051C108.497 22.7085 109.324 23.9484 109.324 24.8782C109.22 26.0147 108.394 27.1513 107.051 27.1513ZM118.932 25.2915C117.486 25.2915 116.039 25.9114 115.523 27.2546L117.279 27.9778C117.692 27.2546 118.312 27.0479 119.036 27.0479C120.069 27.0479 120.999 27.6679 121.102 28.701V28.8044C120.792 28.5977 119.965 28.2878 119.139 28.2878C117.279 28.2878 115.419 29.321 115.419 31.1807C115.419 32.9371 116.969 34.0737 118.622 34.0737C119.965 34.0737 120.585 33.4537 121.102 32.8338H121.205V33.867H123.065V28.9077C122.858 26.6347 121.102 25.2915 118.932 25.2915ZM118.726 32.4205C118.106 32.4205 117.176 32.1106 117.176 31.284C117.176 30.2508 118.312 29.9409 119.242 29.9409C120.069 29.9409 120.482 30.1475 120.999 30.3542C120.792 31.594 119.759 32.4205 118.726 32.4205ZM129.574 25.6015L127.405 31.1807H127.301L125.028 25.6015H122.962L126.371 33.4537L124.408 37.7932H126.371L131.641 25.6015H129.574ZM112.217 33.867H114.18V20.9521H112.217V33.867Z" fill="white"/>
<path d="M12.5166 10.6191C12.2066 10.9291 12 11.4457 12 12.0656V34.8992C12 35.5191 12.2066 36.0357 12.5166 36.3457L12.6199 36.449L25.4315 23.6374V23.5341V23.4307L12.5166 10.6191Z" fill="url(#paint0_linear_1020_1048)"/>
<path d="M29.6677 27.9771L25.4316 23.741V23.5344V23.431L29.6677 19.1949L29.771 19.2983L34.8337 22.1912C36.2802 23.0178 36.2802 24.3609 34.8337 25.1875L29.6677 27.9771Z" fill="url(#paint1_linear_1020_1048)"/>
<path d="M29.77 27.8747L25.4305 23.5353L12.5156 36.4502C13.0322 36.9668 13.7555 36.9668 14.6853 36.5535L29.77 27.8747Z" fill="url(#paint2_linear_1020_1048)"/>
<path d="M29.77 19.1952L14.6853 10.6197C13.7555 10.1031 13.0322 10.2064 12.5156 10.723L25.4305 23.5346L29.77 19.1952Z" fill="url(#paint3_linear_1020_1048)"/>
<path opacity="0.2" d="M29.6686 27.7708L14.6873 36.2429C13.8607 36.7595 13.1375 36.6562 12.6209 36.2429L12.5176 36.3463L12.6209 36.4496C13.1375 36.8629 13.8607 36.9662 14.6873 36.4496L29.6686 27.7708Z" fill="black"/>
<path opacity="0.12" d="M12.5168 36.2431C12.2068 35.9331 12.1035 35.4165 12.1035 34.7966V34.8999C12.1035 35.5199 12.3102 36.0365 12.6201 36.3464V36.2431H12.5168Z" fill="black"/>
<path opacity="0.12" d="M34.832 24.8784L29.666 27.7714L29.7693 27.8747L34.832 24.9817C35.5552 24.5685 35.8652 24.0519 35.8652 23.5353C35.8652 24.0519 35.4519 24.4652 34.832 24.8784Z" fill="black"/>
<path opacity="0.25" d="M14.6865 10.7229L34.8338 22.1913C35.4537 22.6046 35.867 23.0179 35.867 23.5345C35.867 23.0179 35.557 22.5013 34.8338 22.088L14.6865 10.6196C13.24 9.793 12.1035 10.5162 12.1035 12.1693V12.2727C12.1035 10.6196 13.24 9.89632 14.6865 10.7229Z" fill="white"/>
</g>
<defs>
<linearGradient id="paint0_linear_1020_1048" x1="24.2947" y1="11.869" x2="6.95523" y2="29.2085" gradientUnits="userSpaceOnUse">
<stop stop-color="#00A0FF"/>
<stop offset="0.00657445" stop-color="#00A1FF"/>
<stop offset="0.2601" stop-color="#00BEFF"/>
<stop offset="0.5122" stop-color="#00D2FF"/>
<stop offset="0.7604" stop-color="#00DFFF"/>
<stop offset="1" stop-color="#00E3FF"/>
</linearGradient>
<linearGradient id="paint1_linear_1020_1048" x1="36.729" y1="23.5358" x2="11.7289" y2="23.5358" gradientUnits="userSpaceOnUse">
<stop stop-color="#FFE000"/>
<stop offset="0.4087" stop-color="#FFBD00"/>
<stop offset="0.7754" stop-color="#FFA500"/>
<stop offset="1" stop-color="#FF9C00"/>
</linearGradient>
<linearGradient id="paint2_linear_1020_1048" x1="27.4215" y1="25.9076" x2="3.90779" y2="49.4213" gradientUnits="userSpaceOnUse">
<stop stop-color="#FF3A44"/>
<stop offset="1" stop-color="#C31162"/>
</linearGradient>
<linearGradient id="paint3_linear_1020_1048" x1="9.30994" y1="3.05276" x2="19.8099" y2="13.5526" gradientUnits="userSpaceOnUse">
<stop stop-color="#32A071"/>
<stop offset="0.0685" stop-color="#2DA771"/>
<stop offset="0.4762" stop-color="#15CF74"/>
<stop offset="0.8009" stop-color="#06E775"/>
<stop offset="1" stop-color="#00F076"/>
</linearGradient>
<clipPath id="clip0_1020_1048">
<rect width="144" height="48" fill="white"/>
</clipPath>
</defs>
</svg>
